HIERARCHY
ROOT Hips
{
	OFFSET 0.00000 0.00000 0.00000
	CHANNELS 6 Xposition Yposition Zposition Zrotation Yrotation Xrotation 
	JOINT LHipJoint
	{
		OFFSET 0 0 0
		CHANNELS 3 Zrotation Yrotation Xrotation
		JOINT LeftHip
		{
			OFFSET 1.65412 -1.54119 0.76744
			CHANNELS 3 Zrotation Yrotation Xrotation
			JOINT LeftKnee
			{
				OFFSET 2.19550 -6.03209 0.00000
				CHANNELS 3 Zrotation Yrotation Xrotation
				JOINT LeftAnkle
				{
					OFFSET 2.38814 -6.56138 0.00000
					CHANNELS 3 Zrotation Yrotation Xrotation
					JOINT LeftToe
					{
						OFFSET 0.17337 -0.47632 1.75875
						CHANNELS 3 Zrotation Yrotation Xrotation
						End Site
						{
							OFFSET 0.00000 -0.00000 0.92050
						}
					}
				}
			}
		}
	}
	JOINT RHipJoint
	{
		OFFSET 0 0 0
		CHANNELS 3 Zrotation Yrotation Xrotation
		JOINT RightHip
		{
			OFFSET -1.40291 -1.54119 0.76744
			CHANNELS 3 Zrotation Yrotation Xrotation
			JOINT RightKnee
			{
				OFFSET -2.22156 -6.10370 0.00000
				CHANNELS 3 Zrotation Yrotation Xrotation
				JOINT RightAnkle
				{
					OFFSET -2.46840 -6.78188 0.00000
					CHANNELS 3 Zrotation Yrotation Xrotation
					JOINT RightToe
					{
						OFFSET -0.15659 -0.43024 1.84117
						CHANNELS 3 Zrotation Yrotation Xrotation
						End Site
						{
							OFFSET -0.00000 -0.00000 0.95587
						}
					}
				}
			}
		}
	}
	JOINT lowerback
	{
		OFFSET 0 0 0
		CHANNELS 3 Zrotation Yrotation Xrotation
		JOINT Chest
		{
			OFFSET -0.01936 1.82120 -0.32061
			CHANNELS 3 Zrotation Yrotation Xrotation
			JOINT Chest2
			{
				OFFSET -0.00532 1.85767 -0.00071
				CHANNELS 3 Zrotation Yrotation Xrotation
				JOINT lowerneck
				{
					OFFSET 0 0 0
					CHANNELS 3 Zrotation Yrotation Xrotation
					JOINT Neck
					{
						OFFSET -0.10687 1.58194 0.10810
						CHANNELS 3 Zrotation Yrotation Xrotation
						JOINT Head
						{
							OFFSET 0.15346 1.57382 -0.25612
							CHANNELS 3 Zrotation Yrotation Xrotation
							End Site
							{
								OFFSET 0.05334 1.61251 -0.10513
							}
						}
					}
				}
				JOINT LeftCollar
				{
					OFFSET 0 0 0
					CHANNELS 3 Zrotation Yrotation Xrotation
					JOINT LeftShoulder
					{
						OFFSET 2.85758 0.89498 -0.01485
CHANNELS 3 Zrotation Xrotation Yrotation
						JOINT LeftElbow
						{
OFFSET 0 -4.791850 -0.000000
CHANNELS 3 Zrotation Xrotation Yrotation
							JOINT LeftWrist
							{
OFFSET 0 -2.655530 0.000000
CHANNELS 3 Zrotation Xrotation Yrotation
								JOINT lhand
								{
									OFFSET 0 0 0
CHANNELS 3 Zrotation Xrotation Yrotation
									JOINT LFingers
									{
OFFSET 0 -0.743900 0.000000
CHANNELS 3 Zrotation Xrotation Yrotation
										End Site
										{
OFFSET 0 -0.599750 0.000000
										}
									}
								}
								JOINT LThumb
								{
OFFSET 0 0.000000 0.000000
CHANNELS 3 Zrotation Xrotation Yrotation
									End Site
									{
OFFSET 0 -0.608910 0.608910
									}
								}
							}
						}
					}
				}
				JOINT RightCollar
				{
					OFFSET 0 0 0
					CHANNELS 3 Zrotation Yrotation Xrotation
					JOINT RightShoulder
					{
						OFFSET -2.93906 0.88031 0.02490
CHANNELS 3 Zrotation Xrotation Yrotation
						JOINT RightElbow
						{
OFFSET 0 -4.772540 -0.000000
CHANNELS 3 Zrotation Xrotation Yrotation
							JOINT RightWrist
							{
OFFSET 0 -2.759950 -0.000000
CHANNELS 3 Zrotation Xrotation Yrotation
								JOINT rhand
								{
									OFFSET 0 0 0
CHANNELS 3 Zrotation Xrotation Yrotation
									JOINT RFingers
									{
OFFSET 0 -0.701620 0.000000
CHANNELS 3 Zrotation Xrotation Yrotation
										End Site
										{
OFFSET 0 -0.565660 0.000000
										}
									}
								}
								JOINT RThumb
								{
OFFSET 0 0.000000 0.000000
CHANNELS 3 Zrotation Xrotation Yrotation
									End Site
									{
OFFSET 0 -0.574300 0.574300
									}
								}
							}
						}
					}
				}
			}
		}
	}
}
MOTION
Frames: 10
Frame Time: 0.008333333333333333
0.674810 15.814291 -0.303642 1.057898 -2.607138 -2.367527 0.000000 0.000000 0.000000 -20.393729 -8.521618 -1.197791 1.686650 8.180440 23.263467 0.589182 1.383619 -15.065813 0.365885 -3.885519 -10.754910 0.000000 0.000000 0.000000 14.978015 13.866803 -2.765257 -2.475605 -9.793383 28.310277 -0.649232 -5.936723 -18.528348 -0.486614 4.472842 -12.410808 -0.404272 0.019588 14.433739 4.499751 0.300577 0.800876 4.985568 0.238442 -7.290225 -12.046737 -7.979801 -11.781972 5.583707 -10.115561 25.289600 2.655589 -5.149548 11.042979 0.000000 0.000000 0.000000 50.310364 8.772889 -110.762552 107.727254 -58.778545 75.289305 -2.306748 -39.650953 -7.865506 0.000000 0.000000 0.000000 -7.125000 0.000000 0.000000 -24.288847 36.761520 -5.313850 0.000000 0.000000 0.000000 -50.437364 -9.723590 -33.742350 -76.873840 -59.338700 -48.657654 13.836558 35.332210 -7.091796 0.000000 0.000000 0.000000 7.125000 0.000000 0.000000 28.574598 22.571233 17.683062
0.666172 15.824260 -0.341746 1.359587 -2.584084 -2.215626 0.000000 0.000000 0.000000 -20.659897 -8.674404 -1.290841 1.635416 8.061487 22.900896 0.564106 1.648996 -14.879915 0.352761 -3.815933 -10.559302 0.000000 0.000000 0.000000 14.610446 14.074933 -3.048477 -2.471762 -9.786399 28.287814 -0.637965 -5.930562 -18.402460 -0.442001 4.265481 -11.824953 0.081905 -0.107483 15.104246 4.998002 0.264748 0.893405 5.269075 0.216965 -7.564820 -12.129964 -7.995488 -12.013729 5.591838 -10.040484 24.417664 2.674177 -5.109043 10.760903 0.000000 0.000000 0.000000 49.564080 9.187457 -110.664733 106.571031 -58.936507 74.299640 -2.488470 -39.020250 -8.038061 0.000000 0.000000 0.000000 -7.125000 0.000000 0.000000 -24.484553 36.905638 -5.269270 0.000000 0.000000 0.000000 -51.338182 -9.759632 -34.369521 -77.568690 -59.407863 -49.255585 13.970958 34.919838 -7.228342 0.000000 0.000000 0.000000 7.125000 0.000000 0.000000 28.627845 22.440190 17.827936
0.654261 15.833458 -0.391044 1.357687 -2.561072 -2.024871 0.000000 0.000000 0.000000 -20.535174 -8.843212 -1.611269 1.612620 8.007790 22.737709 0.538599 1.799137 -14.632295 0.357570 -3.841662 -10.631701 0.000000 0.000000 0.000000 14.551090 14.091901 -3.521013 -2.478992 -9.799579 28.329986 -0.615445 -5.911025 -18.142173 -0.484301 4.462605 -12.381947 0.817770 -0.289789 16.026226 5.416058 0.210876 1.046477 5.335150 0.176294 -7.910324 -11.537713 -7.927523 -12.463793 5.346175 -9.896896 23.335194 2.498992 -4.999958 10.384516 0.000000 0.000000 0.000000 49.226966 9.807780 -110.407475 105.711817 -59.046335 73.563232 -2.326775 -38.429334 -8.448196 0.000000 0.000000 0.000000 -7.125000 0.000000 0.000000 -24.483606 37.291449 -5.016352 0.000000 0.000000 0.000000 -52.073787 -10.036255 -35.045516 -77.842360 -59.434058 -49.491157 14.176007 34.692792 -7.150831 0.000000 0.000000 0.000000 7.125000 0.000000 0.000000 28.772689 22.498133 17.901842
0.634329 15.838115 -0.442674 1.900470 -2.609734 -1.731813 0.000000 0.000000 0.000000 -20.964224 -8.887907 -2.001977 1.560650 7.883729 22.361578 0.499640 2.054567 -14.257072 0.342119 -3.758438 -10.398027 0.000000 0.000000 0.000000 13.843725 14.267417 -4.322802 -2.539882 -9.910091 28.685936 -0.616433 -5.713447 -18.005971 -0.441528 4.262406 -11.816278 0.788300 -0.350071 16.923642 5.756321 0.183234 1.208211 5.756441 0.174223 -8.235098 -10.879460 -7.848676 -12.445318 4.678078 -9.671892 21.476105 2.201371 -4.901832 9.620085 0.000000 0.000000 0.000000 48.790247 10.759835 -110.019178 105.237247 -59.104309 73.156121 -2.184534 -37.671775 -8.361822 0.000000 0.000000 0.000000 -7.125000 0.000000 0.000000 -24.344331 37.223308 -5.027467 0.000000 0.000000 0.000000 -53.120092 -9.917010 -35.496323 -77.961732 -59.445223 -49.593968 14.042173 34.065961 -6.967416 0.000000 0.000000 0.000000 7.125000 0.000000 0.000000 28.730703 22.671478 17.732393
0.611764 15.848405 -0.498896 2.038009 -2.849101 -1.282636 0.000000 0.000000 0.000000 -20.852878 -8.826794 -2.725658 1.540228 7.834421 22.212194 0.474884 2.108952 -13.955626 0.359155 -3.849580 -10.653879 0.000000 0.000000 0.000000 13.586599 14.595034 -5.291133 -2.594607 -10.007839 29.002206 -0.613809 -5.485583 -17.809383 -0.424905 4.183634 -11.593892 1.156425 -0.390327 17.860328 6.109226 0.264995 1.387529 5.940479 0.210368 -8.569572 -10.696026 -7.754640 -12.792363 4.730220 -9.481724 19.986785 2.214016 -4.777675 9.139216 0.000000 0.000000 0.000000 48.372546 11.821844 -109.525029 105.144167 -59.115400 73.076318 -2.105541 -36.993525 -8.803085 0.000000 0.000000 0.000000 -7.125000 0.000000 0.000000 -24.419235 37.631755 -4.778854 0.000000 0.000000 0.000000 -54.125696 -9.932911 -36.212435 -77.794875 -59.429590 -49.450340 14.237891 33.822119 -7.360632 0.000000 0.000000 0.000000 7.125000 0.000000 0.000000 28.763973 22.305184 18.045232
0.585473 15.855153 -0.556735 2.500264 -2.963509 -0.517985 0.000000 0.000000 0.000000 -21.041399 -8.911782 -3.923649 1.542493 7.840028 22.229184 0.444168 2.216098 -13.593111 0.358526 -3.846878 -10.646232 0.000000 0.000000 0.000000 12.845564 14.912211 -6.807783 -2.705160 -10.201642 29.632266 -0.619904 -5.258230 -17.712893 -0.418070 4.150251 -11.499687 1.235106 -0.419005 18.484461 6.171321 0.268075 1.574184 5.977896 0.210149 -8.710791 -10.324258 -7.703065 -13.323852 4.821080 -9.376495 18.355993 2.194065 -4.673327 8.650614 0.000000 0.000000 0.000000 48.421301 12.588468 -109.239881 105.285353 -59.098474 73.197434 -1.924909 -36.631394 -8.494937 0.000000 0.000000 0.000000 -7.125000 0.000000 0.000000 -24.179733 37.364253 -4.897117 0.000000 0.000000 0.000000 -54.802913 -9.552622 -36.742151 -77.797742 -59.429882 -49.452766 14.376372 33.545289 -7.393763 0.000000 0.000000 0.000000 7.125000 0.000000 0.000000 28.842296 22.267020 18.140043
0.558715 15.859576 -0.621525 2.963211 -2.983815 0.591936 0.000000 0.000000 0.000000 -21.109699 -9.012562 -5.787319 1.597062 7.970819 22.625489 0.422468 1.908931 -13.122366 0.337411 -3.732873 -10.326407 0.000000 0.000000 0.000000 11.993344 15.174591 -8.943626 -2.870616 -10.482606 30.554137 -0.625659 -5.028327 -17.614975 -0.446519 4.287065 -11.885788 1.269342 -0.504235 19.104945 6.122838 0.191592 1.546086 5.947790 0.177164 -9.077138 -10.218082 -7.592967 -13.865093 5.091667 -9.171699 16.744268 2.289361 -4.526078 8.193368 0.000000 0.000000 0.000000 48.490881 13.501872 -108.936375 105.553612 -59.065913 73.427530 -1.470459 -36.394595 -8.450451 0.000000 0.000000 0.000000 -7.125000 0.000000 0.000000 -23.805267 37.357483 -4.813610 0.000000 0.000000 0.000000 -55.316890 -9.031658 -36.884964 -77.634838 -59.414275 -49.312477 14.199053 32.695395 -7.301479 0.000000 0.000000 0.000000 7.125000 0.000000 0.000000 28.753190 22.360724 17.992875
0.523977 15.847218 -0.696447 2.859043 -3.281952 1.538908 0.000000 0.000000 0.000000 -20.499322 -8.964667 -7.911885 1.751917 8.328943 23.717741 0.432578 1.380610 -13.002141 0.341651 -3.755495 -10.389716 0.000000 0.000000 0.000000 11.834699 15.645266 -10.956868 -3.052410 -10.779306 31.539212 -0.633725 -4.682749 -17.467918 -0.451361 4.310118 -11.950841 1.627388 -0.442607 20.022338 6.105502 0.390937 1.637565 5.695559 0.262042 -9.498991 -9.989079 -7.502480 -14.205768 5.224915 -8.998736 14.729140 2.325206 -4.403664 7.563993 0.000000 0.000000 0.000000 48.829958 14.268709 -108.413572 106.399427 -58.958969 74.152647 -1.867179 -35.891798 -8.597176 0.000000 0.000000 0.000000 -7.125000 0.000000 0.000000 -24.165629 37.462044 -4.830677 0.000000 0.000000 0.000000 -55.765518 -8.065198 -37.162003 -77.286780 -59.380364 -49.012933 14.058209 31.887523 -7.562874 0.000000 0.000000 0.000000 7.125000 0.000000 0.000000 28.607602 22.133009 18.049128
0.487431 15.831721 -0.773000 2.968858 -3.331691 2.262774 0.000000 0.000000 0.000000 -20.180228 -9.086033 -9.685329 1.897732 8.649607 24.705235 0.429180 0.885888 -12.728025 0.305125 -3.550901 -9.816530 0.000000 0.000000 0.000000 11.473122 15.934919 -12.751061 -3.251550 -11.091423 32.588796 -0.654956 -4.255276 -17.423608 -0.367086 3.891938 -10.772902 1.550742 -0.359391 21.100043 5.959290 0.517792 1.761348 5.571046 0.326646 -9.963496 -9.900256 -7.446018 -14.547952 5.546955 -8.888395 13.003463 2.434756 -4.306023 7.059601 0.000000 0.000000 0.000000 49.228631 14.849835 -108.207878 107.197068 -58.852522 74.835719 -1.604926 -35.295448 -8.515522 0.000000 0.000000 0.000000 -7.125000 0.000000 0.000000 -23.932091 37.407035 -4.811727 0.000000 0.000000 0.000000 -55.942519 -6.893278 -37.195998 -77.015189 -59.353189 -48.779225 14.825439 31.656585 -7.799737 0.000000 0.000000 0.000000 7.125000 0.000000 0.000000 29.027176 21.873043 18.606425
0.462020 15.810027 -0.830448 3.400891 -3.207558 2.877640 0.000000 0.000000 0.000000 -20.350806 -9.328555 -11.133547 2.023011 8.913746 25.526041 0.429800 0.480308 -12.567878 0.299343 -3.517767 -9.723770 0.000000 0.000000 0.000000 10.699404 15.692054 -14.533286 -3.469652 -11.419106 33.706579 -0.682439 -3.716336 -17.392020 -0.444219 4.276311 -11.855401 1.122305 -0.343678 21.563293 5.666650 0.404972 2.167417 5.521220 0.276534 -9.751030 -9.725629 -7.347728 -14.849949 5.788201 -8.722150 11.131982 2.514122 -4.187788 6.495039 0.000000 0.000000 0.000000 49.476407 14.872053 -107.734212 107.753682 -58.774931 75.311910 -1.734185 -34.932486 -8.629771 0.000000 0.000000 0.000000 -7.125000 0.000000 0.000000 -24.070011 37.501774 -4.783092 0.000000 0.000000 0.000000 -56.214332 -6.501257 -37.634764 -76.125439 -59.259931 -48.014184 14.407749 30.422354 -7.360982 0.000000 0.000000 0.000000 7.125000 0.000000 0.000000 28.869010 22.294579 18.140692
